<?xml version="1.0" encoding="UTF-8"?>
<svg width="80px" height="80px" viewBox="0 0 80 80" version="1.1" xmlns="http://www.w3.org/2000/svg" xmlns:xlink="http://www.w3.org/1999/xlink">
    <title>gold_3</title>
    <g id="gold_3" stroke="none" stroke-width="1" fill="none" fill-rule="evenodd">
        <g id="Ranked-/-Badge-Copy-2" transform="translate(0.000000, -0.000000)">
            <g id="Group-4" opacity="0" transform="translate(9.500000, 0.500000)">
                <circle id="Oval-Copy-13" fill="#B75600" cx="30.75" cy="39.25" r="29.75"></circle>
                <path d="M48.6701917,8.5 L57,16.987132 L49.6467906,24.4804596 C49.6501762,24.7680579 49.6518691,25.05771 49.6518691,25.3494158 L49.6517382,25.8632408 L49.6508224,26.4227928 C49.6465769,27.9956417 49.625111,30.0448462 49.5165754,32.3660192 L53.0732907,35.9912759 L48.8059135,40.3401622 C48.4503346,42.9145121 47.945296,45.5423209 47.2279754,48.0397635 L53.0732907,53.9952018 L44.7434825,62.4823338 L41.243,58.916 L41.1880114,58.9708442 C39.1269336,60.962098 37.2955797,62.637856 35.6939497,63.9981183 L35.9083866,63.9973828 L35.9083866,76 L24.1282588,76 L24.1282588,63.9973828 L24.3424513,63.9979108 C22.8583093,62.7374195 21.1769159,61.2060293 19.2982712,59.4037402 L16.2748402,62.4823338 L7.94503196,53.9952018 L13.0372889,48.8075833 C12.0828557,45.7145095 11.4718488,42.3870309 11.0806959,39.1867354 L6.96335464,34.9910578 L10.4794681,31.4091212 C10.4005963,29.3431243 10.3874193,27.532527 10.3852179,26.1374445 L10.3847763,25.3494158 C10.3847763,24.3872163 10.4031948,23.4473619 10.4400317,22.5298526 L5,16.987132 L13.3298083,8.5 L17.902,13.16 L30.0183227,11.9860415 L43.926,13.333 L48.6701917,8.5 Z" id="Combined-Shape-Copy-4" fill="#FFA000" opacity="0.595214844"></path>
                <path d="M33.2346484,0 L32.367,34.643 L56.2790698,9.53444335 L60.5,13.7505675 L33.062,39.82 L59.0930233,67.1548072 L57.6860465,68.5601819 L32.126,44.274 L31.2448828,79.5 L29.2551172,79.5 L28.373,44.275 L2.81412701,68.5600083 L1.40715027,67.1546336 L27.438,39.82 L-1.84741111e-13,13.7505675 L4.22093023,9.53444336 L28.132,34.643 L27.2653516,0 L33.2346484,0 Z" id="Combined-Shape-Copy-101" fill="#FFD563"></path>
            </g>
            <circle id="Conquerer" fill-opacity="0" fill="#000000" cx="40" cy="40" r="30"></circle>
            <path d="M19.5091374,60.4203102 L21.5796898,52.6929036 L29.3070964,54.763456 L27.236544,62.4908626 L19.5091374,60.4203102 Z M60.4908626,60.4203102 L52.763456,62.4908626 L50.6929036,54.763456 L58.4203102,52.6929036 L60.4908626,60.4203102 Z" id="platinum" fill-opacity="0" fill="#000000"></path>
            <path d="M59.0918831,12.4228355 L67.5771645,20.9081169 L59.0918831,29.3933983 L50.6066017,20.9081169 L59.0918831,12.4228355 Z M29.3933983,20.9081169 L20.9081169,29.3933983 L12.4228355,20.9081169 L20.9081169,12.4228355 L29.3933983,20.9081169 Z" id="gold" fill="#71641E"></path>
            <path d="M23,31.5147186 L31.4852814,40 L23,48.4852814 L14.5147186,40 L23,31.5147186 Z M57,31.5147186 L65.4852814,40 L57,48.4852814 L48.5147186,40 L57,31.5147186 Z" id="diamond" fill-opacity="0" fill="#000000"></path>
            <path d="M27.3298252,64.7459932 C18.9155212,56.613234 18.5195539,37.4971373 18.5009202,29.6333629 L18.5,28.5533586 L18.5,28.5533586 C18.5,23.8673689 18.9033397,19.6680192 19.7100192,15.9553095 L40,14 L60.2899808,15.9553095 C61.0966603,19.6680192 61.5,23.8673689 61.5,28.5533586 C61.5,28.6360525 61.5,28.7206289 61.4999856,28.8070458 L61.4990798,29.6333629 C61.4804461,37.4971373 61.0844788,56.613234 52.6701748,64.7459932 C46.7836247,70.4355779 42.5602331,73.8535801 40,75 L40,75 C37.4397669,73.8535801 33.2163753,70.4355779 27.3298252,64.7459932 Z" id="silver" fill="#71641E"></path>
            <circle id="Inner-Circle" fill-opacity="0" fill="#000000" cx="40" cy="40" r="18"></circle>
            <polygon id="Tier-1,-3" fill="#FFF2AD" points="37 4 43 4 41 76 39 76"></polygon>
            <polygon id="Tier-1,-3-Copy" fill="#FFF2AD" transform="translate(40.000000, 40.000000) rotate(-315.000000) translate(-40.000000, -40.000000) " points="37 4 43 4 41 76 39 76"></polygon>
            <polygon id="Tier-1,-3-Copy-2" fill="#FFF2AD" transform="translate(40.000000, 40.000000) rotate(-45.000000) translate(-40.000000, -40.000000) " points="37 4 43 4 41 76 39 76"></polygon>
        </g>
    </g>
</svg>